# xmcd
#
# Track frame offsets:
#	150
#	43485
#	50703
#	75121
#	106887
#	117363
#	146479
#
# Disc length: 2337 seconds
#
# Revision: 2
# Processed by: cddbd v1.5.1PL2 Copyright (c) Steve Scherf et al.
# Submitted via: EasyCDDAExtractor 8.0.2.1
#
DISCID=5a091f07
DTITLE=Dio - Sauna Oper Air Metal Festival Tampere 10-06-05 Disc 2
DYEAR=2005
DGENRE=Hard Rock
TTITLE0=Heaven and Hell
TTITLE1=Encore Cheers
TTITLE2=Rainbow In The Dark
TTITLE3=The Last In Line
TTITLE4=Encore Cheers II
TTITLE5=We Rock
TTITLE6=Neon Knights
EXTD=
EXTT0=
EXTT1=
EXTT2=
EXTT3=
EXTT4=
EXTT5=
EXTT6=
PLAYORDER=
